<?xml version="1.0" encoding="UTF-8" standalone="no"?>
<!-- Created with Inkscape (http://www.inkscape.org/) -->

<svg
   xmlns:dc="http://purl.org/dc/elements/1.1/"
   xmlns:cc="http://creativecommons.org/ns#"
   xmlns:rdf="http://www.w3.org/1999/02/22-rdf-syntax-ns#"
   xmlns:svg="http://www.w3.org/2000/svg"
   xmlns="http://www.w3.org/2000/svg"
   xmlns:sodipodi="http://sodipodi.sourceforge.net/DTD/sodipodi-0.dtd"
   xmlns:inkscape="http://www.inkscape.org/namespaces/inkscape"
   width="744.09448819"
   height="1052.3622047"
   id="svg2"
   version="1.1"
   inkscape:version="0.48.5 r10040"
   sodipodi:docname="Evellia - logo.svg">
  <defs
     id="defs4" />
  <sodipodi:namedview
     id="base"
     pagecolor="#ffffff"
     bordercolor="#666666"
     borderopacity="1.0"
     inkscape:pageopacity="0.0"
     inkscape:pageshadow="2"
     inkscape:zoom="2.84"
     inkscape:cx="320.07042"
     inkscape:cy="505.70837"
     inkscape:document-units="px"
     inkscape:current-layer="layer1"
     showgrid="false"
     inkscape:window-width="2560"
     inkscape:window-height="1377"
     inkscape:window-x="1672"
     inkscape:window-y="-8"
     inkscape:window-maximized="1" />
  <metadata
     id="metadata7">
    <rdf:RDF>
      <cc:Work
         rdf:about="">
        <dc:format>image/svg+xml</dc:format>
        <dc:type
           rdf:resource="http://purl.org/dc/dcmitype/StillImage" />
        <dc:title></dc:title>
      </cc:Work>
    </rdf:RDF>
  </metadata>
  <g
     inkscape:label="Layer 1"
     inkscape:groupmode="layer"
     id="layer1">
    <path
       style="fill:#36175e;fill-opacity:1"
       d="m 357.93097,668.69116 c -6.11797,-4.13271 -8.75382,-6.21554 -15.33297,-12.11599 -1.22653,-1.1 -5.54294,-4.91899 -9.59203,-8.48665 -8.02903,-7.07439 -55.17331,-53.94553 -66.39804,-66.01335 -14.61305,-15.71064 -24.53135,-28.47056 -26.42825,-34 -0.98976,-2.88517 -0.92715,-4.14243 0.35642,-7.15709 3.48252,-8.17923 17.84891,-24.8866 46.59799,-54.19109 34.12328,-34.78249 44.99429,-44.98212 65.54203,-61.4942 10.10637,-8.12145 14.32563,-9.37308 20.88789,-6.19634 18.81095,9.10622 113.39633,104.30712 121.05156,121.83931 1.85372,4.24543 1.85151,4.35445 -0.17216,8.5 -5.39931,11.06064 -20.23804,27.73377 -60.26104,67.71066 -38.90027,38.85546 -57.52599,54.60236 -65.84352,55.66663 -3.13797,0.40152 -4.70662,-0.21068 -10.40788,-4.06189 z M 322.34478,612.9495 c 11.13091,-2.36445 42.20342,-15.61198 91.36292,-38.95188 15.36496,-7.29496 31.7613,-14.73789 36.4363,-16.53985 l 8.5,-3.27628 -0.0781,-3.94159 c -0.16725,-8.44476 -8.54171,-21.11277 -19.11093,-28.90902 -11.40077,-8.40964 -67.33471,-43.3803 -74.8965,-46.82632 -8.54882,-3.89582 -24.19707,-8.9913 -30.4718,-9.92242 -6.39381,-0.94879 -7.36706,0.44359 -5.45128,7.79878 0.80664,3.09689 2.59493,8.40753 3.97399,11.80141 7.48967,18.43218 16.50249,27.06135 44.06414,42.18846 6.61625,3.6313 13.98303,8.01746 16.37063,9.74703 3.64021,2.63696 4.11979,3.35657 2.97045,4.45718 -0.75385,0.72189 -10.56908,6.32733 -21.81164,12.45653 -11.24255,6.12921 -23.61755,13.25041 -27.5,15.8249 -12.1514,8.0577 -25.89133,23.06451 -31.78777,34.71874 -2.6755,5.28808 -2.93919,7.18917 -1.23374,8.89463 1.91138,1.91138 1.92101,1.91191 8.6633,0.4797 z"
       id="path3011"
       inkscape:connector-curvature="0"
       inkscape:export-xdpi="600"
       inkscape:export-ydpi="600" />
  </g>
</svg>
